<svg height="512" viewBox="0 0 128 128" width="512" xmlns="http://www.w3.org/2000/svg"><g><g><path d="m107.943 5.75a4 4 0 0 0 -4-4h-79.886a4 4 0 0 0 -4 4v4.916h87.886z" fill="#ffe72c"/><path d="m20.057 10.666v111.584a4 4 0 0 0 4 4h22.02a4 4 0 0 0 3.965-3.472l8.958-67.239a5.04 5.04 0 0 1 5-4.373 5.04 5.04 0 0 1 5 4.373l8.962 67.239a4 4 0 0 0 3.965 3.472h22.02a4 4 0 0 0 4-4v-111.584z" fill="#5f2e78"/><g fill="#ffe72c"><path d="m53.339 48.761a23.367 23.367 0 0 1 -33.282-3.668v17.571a23.377 23.377 0 0 0 33.282-13.9z"/><path d="m80.306 41.952-6.919 2.461.202-7.341-4.479-5.821 7.044-2.076 4.152-6.058 4.152 6.058 7.044 2.076-4.479 5.821.202 7.341z"/><path d="m39.382 37.457-6.92 2.461.202-7.341-4.478-5.821 7.044-2.076 4.152-6.058 4.151 6.058 7.044 2.076-4.478 5.821.202 7.341z"/><path d="m107.943 112.108v-13.7a23.374 23.374 0 0 1 -25.693-2.666 23.366 23.366 0 0 0 25.693 16.366z"/><path d="m91.487 76.645-6.919 2.461.202-7.341-4.478-5.82 7.044-2.077 4.151-6.058 4.152 6.058 7.044 2.077-4.478 5.82.202 7.341z"/><path d="m36.621 98.739-6.919 2.46.202-7.34-4.479-5.821 7.044-2.076 4.152-6.058 4.152 6.058 7.044 2.076-4.479 5.821.202 7.34z"/></g></g><g><path d="m103.943 0h-79.886a5.756 5.756 0 0 0 -5.75 5.75v116.5a5.756 5.756 0 0 0 5.75 5.75h22.02a5.768 5.768 0 0 0 5.7-4.99l8.962-67.239a3.29 3.29 0 0 1 6.522 0l8.962 67.239a5.768 5.768 0 0 0 5.7 4.99h22.02a5.756 5.756 0 0 0 5.75-5.75v-63.25a1.75 1.75 0 1 0 -3.5 0v38.315a21.353 21.353 0 0 1 -9.084 2.007 21.661 21.661 0 0 1 -13.746-4.93 1.749 1.749 0 0 0 -2.788 1.856 24.974 24.974 0 0 0 24.05 17.849c.517 0 1.042-.024 1.568-.057v8.21a2.253 2.253 0 0 1 -2.25 2.25h-22.02a2.257 2.257 0 0 1 -2.23-1.953l-8.963-67.239a6.79 6.79 0 0 0 -13.46 0l-8.963 67.239a2.257 2.257 0 0 1 -2.23 1.953h-22.02a2.253 2.253 0 0 1 -2.25-2.25v-56.87a25.2 25.2 0 0 0 9.157 1.735 1.75 1.75 0 1 0 0-3.5 21.683 21.683 0 0 1 -9.157-2.041v-12.074a24.939 24.939 0 0 0 16.673 6.341 25.192 25.192 0 0 0 10.875-2.477 21.716 21.716 0 0 1 -9.022 8.121 1.75 1.75 0 1 0 1.52 3.153 25.2 25.2 0 0 0 13.161-15.371 1.75 1.75 0 0 0 -2.788-1.857 21.6 21.6 0 0 1 -30.419-2.945v-32.049h84.386v8.417a1.75 1.75 0 1 0 3.5 0v-15.083a5.756 5.756 0 0 0 -5.75-5.75zm.682 110.6a21.8 21.8 0 0 1 -18.376-10.244 25.076 25.076 0 0 0 19.944.762v9.421c-.528.037-1.052.061-1.568.061zm-82.818-101.684v-3.166a2.253 2.253 0 0 1 2.25-2.25h79.886a2.253 2.253 0 0 1 2.25 2.25v3.166z"/><path d="m107.943 34.4a1.75 1.75 0 0 0 -1.75 1.75v7.542a1.75 1.75 0 0 0 3.5 0v-7.546a1.749 1.749 0 0 0 -1.75-1.746z"/><path d="m72.358 45.829a1.749 1.749 0 0 0 1.615.233l6.333-2.252 6.333 2.252a1.751 1.751 0 0 0 2.336-1.7l-.185-6.719 4.1-5.327a1.751 1.751 0 0 0 -.89-2.743l-6.448-1.9-3.8-5.544a1.75 1.75 0 0 0 -2.887 0l-3.8 5.544-6.448 1.9a1.751 1.751 0 0 0 -.892 2.746l4.1 5.327-.185 6.719a1.753 1.753 0 0 0 .718 1.464zm4.291-14.975a1.76 1.76 0 0 0 .949-.69l2.708-3.951 2.708 3.951a1.761 1.761 0 0 0 .948.69l4.6 1.354-2.922 3.8a1.753 1.753 0 0 0 -.362 1.115l.132 4.788-4.513-1.6a1.749 1.749 0 0 0 -1.173 0l-4.514 1.6.132-4.788a1.753 1.753 0 0 0 -.362-1.115l-2.922-3.8z"/><path d="m52.242 26.215a1.753 1.753 0 0 0 -1.17-1.138l-6.447-1.9-3.8-5.544a1.75 1.75 0 0 0 -2.887 0l-3.8 5.544-6.447 1.9a1.75 1.75 0 0 0 -.892 2.746l4.1 5.327-.185 6.72a1.75 1.75 0 0 0 1.749 1.8 1.723 1.723 0 0 0 .587-.1l6.333-2.252 6.332 2.252a1.749 1.749 0 0 0 2.336-1.7l-.184-6.72 4.1-5.327a1.751 1.751 0 0 0 .275-1.608zm-7.53 5.294a1.753 1.753 0 0 0 -.362 1.115l.131 4.789-4.513-1.6a1.737 1.737 0 0 0 -1.173 0l-4.513 1.6.132-4.789a1.748 1.748 0 0 0 -.363-1.115l-2.921-3.8 4.6-1.355a1.747 1.747 0 0 0 .948-.689l2.709-3.951 2.708 3.951a1.746 1.746 0 0 0 .949.689l4.594 1.355z"/><path d="m104.348 65.4a1.752 1.752 0 0 0 -1.17-1.137l-6.448-1.9-3.8-5.544a1.815 1.815 0 0 0 -2.887 0l-3.8 5.544-6.447 1.9a1.749 1.749 0 0 0 -.892 2.746l4.096 5.33-.185 6.719a1.75 1.75 0 0 0 2.336 1.7l6.336-2.258 6.333 2.251a1.749 1.749 0 0 0 2.336-1.7l-.185-6.719 4.1-5.327a1.753 1.753 0 0 0 .277-1.605zm-7.53 5.3a1.75 1.75 0 0 0 -.363 1.116l.132 4.789-4.513-1.605a1.753 1.753 0 0 0 -1.174 0l-4.512 1.6.132-4.789a1.762 1.762 0 0 0 -.363-1.116l-2.921-3.8 4.595-1.354a1.749 1.749 0 0 0 .948-.69l2.708-3.951 2.713 3.957a1.755 1.755 0 0 0 .949.69l4.59 1.353z"/><path d="m49.481 87.5a1.751 1.751 0 0 0 -1.17-1.138l-6.447-1.9-3.8-5.544a1.749 1.749 0 0 0 -2.886 0l-3.8 5.544-6.446 1.9a1.75 1.75 0 0 0 -.892 2.746l4.1 5.328-.185 6.718a1.75 1.75 0 0 0 2.336 1.7l6.333-2.251 6.333 2.251a1.75 1.75 0 0 0 2.336-1.7l-.185-6.718 4.1-5.328a1.754 1.754 0 0 0 .273-1.608zm-7.53 5.294a1.753 1.753 0 0 0 -.362 1.115l.132 4.789-4.513-1.6a1.737 1.737 0 0 0 -1.173 0l-4.514 1.6.132-4.789a1.753 1.753 0 0 0 -.362-1.115l-2.921-3.794 4.594-1.354a1.76 1.76 0 0 0 .949-.69l2.708-3.956 2.708 3.951a1.76 1.76 0 0 0 .949.69l4.595 1.359z"/></g></g></svg>